<?xml version="1.0" encoding="utf-8" ?>
<svg xmlns="http://www.w3.org/2000/svg" xmlns:xlink="http://www.w3.org/1999/xlink" width="676.8164" height="651.6616" viewBox="0 0 676.8164 651.6616">
	<path d="M287.17 69.3078C315.426 -24.726 424.622 -19.6376 430.951 63.7851C433.372 95.7847 433.723 166.196 443.631 186.881C467.419 236.525 573.781 220.164 633.106 247.137C696.091 275.785 682.75 339.557 644.875 359.808C608.594 379.148 547.118 379.562 526.619 432.391C518.987 452.083 520.579 483.4 526.619 509.339C547.304 598.14 557.647 629.809 515.388 648.529C489.821 659.864 433.247 638.848 401.765 611.068C377.688 589.804 334.994 554.226 303.698 552.861C259.721 550.937 214.959 596.299 152.697 617.853C72.6673 645.467 19.2586 588.894 70.516 509.877C90.3528 479.222 111.886 433.86 111.886 409.783C111.886 381.548 93.8901 335.503 36.9029 292.168C-15.1819 252.556 -27.2205 140.505 102.474 161.687C150.174 169.485 201.99 180.035 232.252 161.459C257.901 145.677 273.642 114.277 287.17 69.3078Z" fill-rule="nonzero" transform="matrix(1 0 0 1 0 0)" fill="rgb(255, 213, 34)"/>
	<circle cx="22.505241" cy="22.505241" r="22.505241" transform="matrix(1 0 0 1 225.922 235.429)" fill="rgb(0, 0, 0)"/>
	<circle cx="22.505241" cy="22.505241" r="22.505241" transform="matrix(1 0 0 1 351.355 262.857)" fill="rgb(0, 0, 0)"/>
	<path d="M0.000757506 14.4795C-0.026176 17.596 0.66105 20.5468 2.06244 23.3317C3.46382 26.1159 5.42429 28.426 7.94384 30.2619C15.0524 35.3641 22.7712 39.2556 31.1004 41.9365C39.4294 44.6178 47.969 45.9596 56.719 45.9619C65.4654 45.9572 74.0014 44.6142 82.3268 41.933C90.6523 39.2521 98.3678 35.3617 105.473 30.2619C107.993 28.4267 109.954 26.117 111.355 23.3327C112.756 20.5481 113.443 17.597 113.417 14.4795C113.417 10.4815 112.003 7.06888 109.176 4.24153C106.348 1.41418 102.936 0.000336669 98.9371 0L14.6666 0C10.6801 0.0282802 7.27728 1.45189 4.45818 4.27082C1.63924 7.08975 0.215553 10.4926 0.187104 14.4795L0.000757506 14.4795Z" fill-rule="nonzero" transform="matrix(1 0 0 1 252.914 386.45)" fill="rgb(0, 0, 19)"/>
</svg>
