<?xml version="1.0" encoding="utf-8" ?>
<svg xmlns="http://www.w3.org/2000/svg" xmlns:xlink="http://www.w3.org/1999/xlink" width="1428.6682" height="1423.9229" viewBox="0 0 1428.6682 1423.9229">
	<path d="M475.086 204.944C407.968 418.581 281.601 467.273 132.153 541.414C-72.5716 642.973 -14.0044 870.94 135.605 932.599C293.122 997.508 363.933 1022.44 426.795 1222.18C511.093 1490.53 841.783 1483.63 939.489 1246.27C1001.51 1095.62 1107.64 1009.99 1252.2 959.374C1474.7 881.457 1468.96 666.056 1333.92 586.052C1178.7 493.967 1015.8 476.585 967.789 207.392C922.188 -48.635 567.091 -88.0146 475.086 204.944Z" fill-rule="nonzero" transform="matrix(1 0 0 1 0 0)" fill="rgb(0, 235, 140)"/>
	<path d="M6.06491 -41.0719C-16.6183 -42.4927 -36.1588 -25.2557 -37.5795 -2.57254L-41.0719 53.1848C-42.4927 75.868 -25.2557 95.4085 -2.57254 96.8293C20.1107 98.25 39.6511 81.0131 41.0719 58.3299L44.5643 2.57254C45.985 -20.1107 28.7481 -39.6511 6.06491 -41.0719Z" fill-rule="evenodd" transform="matrix(1 0 0 1 454.694 555.705)" fill="rgb(0, 0, 0)"/>
	<path d="M4.76204 -41.1061C-17.94 -42.1842 -37.218 -24.6542 -38.2961 -1.95211L-41.1061 57.2172C-42.1842 79.9193 -24.6542 99.1973 -1.95211 100.275C20.75 101.353 40.028 83.8235 41.1061 61.1214L43.916 1.95211C44.9941 -20.75 27.4641 -40.028 4.76204 -41.1061Z" fill-rule="evenodd" transform="matrix(1 0 0 1 633.366 536.516)" fill="rgb(0, 0, 0)"/>
	<path d="M-13.7144 18.2878C-23.8144 10.7136 -25.862 -3.61441 -18.2878 -13.7144C-10.7136 -23.8144 3.61441 -25.862 13.7144 -18.2878L138.436 75.2433C148.536 82.8175 150.583 97.1455 143.009 107.245C135.435 117.345 121.107 119.393 111.007 111.819L-13.7144 18.2878Z" fill-rule="evenodd" transform="matrix(1 0 0 1 865.788 658.508)" fill="rgb(0, 0, 0)"/>
	<path d="M334.702 -19.5048C323.93 -26.0881 309.86 -22.6923 303.277 -11.9202Q281.459 23.7807 255.177 54.3228Q231.345 82.0186 204.038 105.25Q179.634 126.011 152.733 142.975Q129.207 157.809 104.171 169.494Q83.0099 179.369 61.3373 186.736Q44.0631 192.608 27.2891 196.617Q15.4485 199.447 5.13024 201.063Q2.02196 201.55 -0.513357 201.857Q-1.61287 201.99 -2.01027 202.025C-14.5859 203.135 -23.8805 214.23 -22.7703 226.806C-21.6601 239.381 -10.5653 248.676 2.01027 247.566Q3.14371 247.465 4.97702 247.244Q8.30723 246.841 12.2066 246.23Q24.3137 244.333 37.9153 241.083Q56.7605 236.579 76.0514 230.022Q100.085 221.852 123.505 210.922Q151.154 198.018 177.118 181.646Q206.775 162.945 233.662 140.071Q263.679 114.535 289.831 84.1424Q318.533 50.7877 342.287 11.9202C348.87 1.14812 345.474 -12.9215 334.702 -19.5048Z" fill-rule="evenodd" transform="matrix(1 0 0 1 600.69 710.413)" fill="rgb(0, 0, 0)"/>
</svg>
