<?xml version="1.0" encoding="utf-8" ?>
<svg xmlns="http://www.w3.org/2000/svg" xmlns:xlink="http://www.w3.org/1999/xlink" width="697.1855" height="694.6108" viewBox="0 0 697.1855 694.6108">
	<path d="M163.857 57.2846C170.58 40.8609 196.953 34.4069 218.61 52.7133C247.941 77.3697 282.609 106.867 292.621 77.3697C305.136 40.4054 321.456 -3.61179 356.29 0.235332C387.938 3.73097 392.116 49.9823 402.872 73.2327C410.526 89.7806 425.626 101.695 454.585 70.647C495.955 26.4228 537.449 36.6613 537.325 71.6813C537.325 109.473 525.369 146.147 538.442 157.275C551.515 168.404 567.545 162.53 602.399 155.931C647.12 147.491 673.307 179.057 642.425 220.779C617.603 254.433 580.991 278.159 631.545 295.845C685.326 314.606 702.184 332.622 695.957 355.831C689.731 379.039 647.72 391.161 625.856 398.256C607.529 404.193 594.291 418.672 622.361 449.182C652.705 482.133 664.331 516.781 640.977 536.742C624.14 551.097 578.426 532.005 559.644 528.199C542.144 524.642 525.989 529.751 537.366 584.628C548.743 639.505 519.908 657.791 491.3 647.779C463.789 638.14 435.989 597.267 416.235 604.61C399.356 610.815 394.019 641.843 388.186 658.039C374.947 694.465 333.495 716.267 310.472 661.535C291.856 617.207 288.732 597.225 268.171 603.782C245.418 611.022 220.699 650.241 193.705 650.882C170.766 651.441 149.233 640.54 162.678 571.679C174.51 510.907 128.631 530.061 102.112 534.922C66.0172 541.541 16.6005 528.448 60.1632 469.144C104.946 408.164 95.2034 404.731 52.4063 394.119C3.42443 381.957 -36.3527 326.872 53.9577 298.555C127.927 275.346 76.339 246.077 59.0047 227.523C33.0035 199.681 31.6385 148.092 89.5771 156.387C145.427 164.392 166.815 175.645 163.712 130.614C160.61 85.583 155.976 76.6879 163.857 57.2846Z" fill-rule="nonzero" transform="matrix(1 0 0 1 0 0.000488281)" fill="rgb(212, 95, 255)"/>
	<path d="M-5.12213 15.6048Q-6.16962 16.7193 -6.79197 17.4767C-9.8745 21.2277 -9.33253 26.7676 -5.58146 29.8501C-1.83039 32.9326 3.70944 32.3907 6.79197 28.6396Q7.04291 28.3342 7.68973 27.646Q9.1346 26.1087 10.9166 24.5024Q13.4495 22.2193 16.2582 20.1743Q19.7632 17.6224 23.4811 15.6036Q32.814 10.536 42.6648 9.23284Q54.9441 7.60845 67.6003 11.9504C72.1928 13.5259 77.1929 11.0802 78.7685 6.48779C80.344 1.89538 77.8983 -3.10481 73.3058 -4.68033Q64.6887 -7.63659 56.0649 -8.46786Q48.1615 -9.22969 40.359 -8.19752Q33.3921 -7.2759 26.6151 -4.93873Q20.7282 -2.90856 15.0912 0.152259Q10.353 2.72507 5.90928 5.96044Q2.35896 8.54536 -0.855298 11.4427Q-3.17837 13.5367 -5.12213 15.6048Z" fill-rule="evenodd" transform="matrix(1 0 0 1 235.348 300.256)" fill="rgb(0, 0, 0)"/>
	<path d="M62.7415 27.6439Q63.3878 28.332 63.6384 28.6371C66.7196 32.3893 72.2592 32.9333 76.0114 29.8521C79.7636 26.771 80.3075 21.2313 77.2264 17.4791Q76.6044 16.7217 75.5574 15.6069Q73.6147 13.5386 71.2928 11.4444Q68.0802 8.54682 64.5314 5.9617Q60.0896 2.72605 55.3529 0.152999Q49.7178 -2.90808 43.8323 -4.93845Q37.0569 -7.2758 30.0911 -8.19749Q22.29 -9.22971 14.3872 -8.46785Q5.76429 -7.63657 -2.85276 -4.68032C-7.44516 -3.10481 -9.89089 1.89538 -8.31537 6.48779C-6.73985 11.0802 -1.73967 13.5259 2.85274 11.9504L2.85275 11.9504Q15.5088 7.6085 27.7848 9.2328Q37.6324 10.5358 46.9603 15.6029Q50.6762 17.6214 54.1791 20.1731Q56.986 22.2178 59.5171 24.5007Q61.2978 26.1068 62.7415 27.6439Z" fill-rule="evenodd" transform="matrix(1 0 0 1 384.562 300.256)" fill="rgb(0, 0, 0)"/>
	<path d="M5.73331 0C3.65673 -0.0144767 2.05873 0.852779 0.939307 2.60177C-0.180455 4.35109 -0.299299 6.1659 0.582774 8.04619C5.15036 17.4968 11.8802 25.0107 20.7723 30.5879C29.6644 36.1645 39.3585 38.9516 49.8545 38.9493C60.3478 38.9503 70.0385 36.1623 78.9265 30.5854C87.8153 25.0085 94.5416 17.4954 99.1055 8.04619C99.9875 6.1659 99.8689 4.35143 98.7494 2.60278C97.63 0.853452 96.0318 -0.01414 93.9549 0L5.73331 0Z" fill-rule="nonzero" transform="matrix(1 0 0 1 296.549 367.25)" fill="rgb(0, 0, 0)"/>
</svg>
