<?xml version="1.0" encoding="utf-8" ?>
<svg xmlns="http://www.w3.org/2000/svg" xmlns:xlink="http://www.w3.org/1999/xlink" width="683.0654" height="672.9854" viewBox="0 0 683.0654 672.9854">
	<path d="M642.858 197.614C680.091 205.888 682.16 245.748 652.187 263.144C598.241 294.379 555.092 349.421 628.834 364.749C710.436 381.731 683.938 440.166 652.518 444.469C613.92 449.764 581.713 456.259 574.681 480.626C567.586 505.324 580.452 528.615 591.994 562.29C604.405 598.323 575.591 628.048 530.456 600.309C494.051 577.928 457.211 554.906 442.711 606.742C427.301 661.785 410.67 675.003 385.952 672.748C362.909 670.68 345.781 630.034 336.887 608.625C329.44 590.753 310.845 594.662 281.534 624.986C249.824 657.772 209.137 669.19 197.326 644.658C190.231 629.889 193.189 587.215 195.733 568.123C198.112 550.375 175.358 538.13 122.756 553.644C67.3827 569.902 47.1527 536.599 54.496 512.274C62.2942 486.459 104.347 463.002 96.6519 440.621C90.736 423.494 56.6473 412.242 39.6648 407.525C1.23221 397.038 -21.8109 354.469 30.3979 330.122C75.2016 309.251 92.246 301.743 82.1103 282.547C69.0787 257.539 40.9679 229.717 37.3688 204.399C34.1213 181.645 48.3319 163.174 118.04 171.986C178.026 179.556 157.693 132.105 148.509 106.662C135.271 69.9259 154.487 20.385 213.108 59.8319C275.163 101.657 293.779 102.733 299.985 58.9007C308.259 0.27977 358.772 -34.7817 395.466 52.9638C423.102 119.011 464.161 89.2868 485.797 75.1588C537.51 41.4013 587.981 66.3677 559.539 118.018C541.253 151.259 516.597 200.448 560.118 195.794C596.813 191.988 620.001 192.505 642.858 197.614Z" fill-rule="nonzero" transform="matrix(1 0 0 1 0 0)" fill="rgb(141, 214, 242)"/>
	<circle cx="19.092226" cy="19.092226" r="19.092226" transform="matrix(1 0 0 1 254.764 258.035)" fill="rgb(2, 2, 5)"/>
	<circle cx="19.092226" cy="19.092226" r="19.092226" transform="matrix(1 0 0 1 377.797 258.035)" fill="rgb(2, 2, 5)"/>
	<path d="M-0.652852 -10.4255C-6.41064 -10.0649 -10.786 -5.10493 -10.4255 0.652852Q-9.48238 15.7134 -3.45419 28.5382Q2.574 41.363 13.5683 51.6991Q24.5625 62.0352 37.7346 67.2615Q50.9067 72.4877 65.9967 72.5008Q81.105 72.4877 94.2771 67.2616Q107.449 62.0356 118.444 51.6996Q129.438 41.3631 135.466 28.5382Q141.494 15.7133 142.437 0.652848C142.798 -5.10493 138.422 -10.0649 132.664 -10.4255C126.907 -10.786 121.947 -6.41064 121.586 -0.652852Q120.892 10.4317 116.559 19.6513Q112.225 28.8708 104.134 36.4781Q96.0419 44.0854 86.5725 47.8424Q77.1032 51.5993 66.0149 51.609Q54.9086 51.5993 45.4394 47.8423Q35.9703 44.0853 27.8783 36.4776Q19.7866 28.8704 15.4531 19.651Q11.1196 10.4316 10.4255 -0.652852C10.0649 -6.41064 5.10493 -10.786 -0.652852 -10.4255Z" fill-rule="evenodd" transform="matrix(1 0 0 1 268.936 337.983)" fill="rgb(0, 0, 0)"/>
</svg>
