<?xml version="1.0" encoding="utf-8" ?>
<svg xmlns="http://www.w3.org/2000/svg" xmlns:xlink="http://www.w3.org/1999/xlink" width="612.1302" height="612.1099" viewBox="0 0 612.1302 612.1099">
	<circle cx="306.05475" cy="306.05475" r="306.05475" transform="matrix(1 0 0 1 0.0207051 0.000229614)" fill="rgb(255, 202, 232)"/>
	<defs>
		<mask id="mask7489728558" style="mask-type:alpha">
			<circle cx="306.05475" cy="306.05475" r="306.05475" transform="matrix(1 0 0 1 0 -2.28882e-05)" fill="rgb(255, 202, 232)"/>
		</mask>
	</defs>
	<g mask="url(#mask7489728558)">
		<path d="M477.789 88.0923C476.423 123.567 482.815 155.628 497.853 174.68C512.084 192.655 548.945 196.523 571.926 199.253C656.734 209.389 646.102 266.789 610.917 291.963C574.387 318.109 522.117 345.91 523.13 386.535C523.73 410.964 535.665 452.354 540.319 474.714C546.876 506.279 550.662 530.564 531.135 543.326C504.865 560.412 462.006 537.121 423.573 522.89C368.738 502.494 317.501 508.948 269.139 564.259C231.12 607.698 196.349 607.905 175.664 594.48C163.501 586.578 149.229 570.63 157.048 513.581C163.253 468.074 161.909 442.611 155.372 430.697C138.679 400.311 94.91 396.897 41.8945 380.226C-6.77728 364.94 -19.9329 309.897 39.826 275.891C66.1579 260.874 112.347 250.676 120.725 227.923C130.054 202.563 109.327 148.306 102.108 115.293C89.2837 57.3754 113.382 27.3616 175.912 57.8512C214.221 76.4676 257.432 104.165 286.018 105.261C327.14 106.812 358.519 67.6144 380.652 35.7593C404.543 1.33978 434.64 -7.90684 458.676 6.61403C479.774 19.4386 479.237 50.6316 477.789 88.0923Z" fill-rule="nonzero" transform="matrix(1 0 0 1 29.8409 68.7619)" fill="rgb(50, 188, 249)"/>
		<path d="M-4.36243 -10.4735C-10.1467 -8.06421 -12.8828 -1.42187 -10.4735 4.36243Q-9.96132 5.59209 -9.03273 7.35947Q-7.35637 10.5501 -5.1299 13.8508Q-2.07287 18.3828 1.67269 22.585Q6.33259 27.8131 11.8189 32.2546Q18.288 37.4916 25.7076 41.4707Q34.1376 45.9917 43.6135 48.7894Q65.464 55.2409 91.9092 52.3163C98.1373 51.6275 102.628 46.0203 101.939 39.7922C101.25 33.5642 95.6431 29.0736 89.415 29.7624Q67.5092 32.1849 50.0389 27.0268Q36.4792 23.0233 26.0966 14.618Q22.0442 11.3374 18.612 7.48666Q15.8838 4.42583 13.6818 1.16146Q12.1519 -1.10665 11.0548 -3.19464Q10.7451 -3.78413 10.5254 -4.25461Q10.4747 -4.3632 10.4433 -4.43428C8.00911 -10.1694 1.39787 -12.8728 -4.36243 -10.4735ZM10.4435 -4.4337C10.4536 -4.40999 10.4636 -4.38624 10.4735 -4.36243Q10.4511 -4.41625 10.4435 -4.4337Z" fill-rule="evenodd" transform="matrix(1 0 0 1 292.548 410.39)" fill="rgb(0, 0, 0)"/>
		<path d="M106.685 -11.2352C112.89 -12.1077 118.628 -7.78484 119.5 -1.57988C120.373 4.62508 116.05 10.3626 109.845 11.2352L1.57988 26.4593C-4.62508 27.3318 -10.3626 23.009 -11.2352 16.804C-12.1077 10.599 -7.78483 4.8615 -1.57988 3.98896L106.685 -11.2352Z" fill-rule="evenodd" transform="matrix(1 0 0 1 233.616 312.157)" fill="rgb(0, 0, 0)"/>
		<circle cx="21.884686" cy="21.884686" r="21.884686" transform="matrix(1 0 0 1 268.904 319.562)" fill="rgb(0, 0, 0)"/>
		<circle cx="21.884686" cy="21.884686" r="21.884686" transform="matrix(1 0 0 1 404.949 300.429)" fill="rgb(0, 0, 0)"/>
	</g>
</svg>
