<?xml version="1.0" encoding="utf-8" ?>
<svg xmlns="http://www.w3.org/2000/svg" xmlns:xlink="http://www.w3.org/1999/xlink" width="612.1097" height="612.1099" viewBox="0 0 612.1097 612.1099">
	<circle cx="306.05475" cy="306.05475" r="306.05475" transform="matrix(1 0 0 1 0.000252502 0.000252502)" fill="rgb(195, 252, 185)"/>
	<defs>
		<mask id="mask1709493304" style="mask-type:alpha">
			<circle cx="306.05475" cy="306.05475" r="306.05475" transform="matrix(1 0 0 1 0 0)" fill="rgb(195, 252, 185)"/>
		</mask>
	</defs>
	<g mask="url(#mask1709493304)">
		<path d="M244.334 85.276C259.31 52.5522 272.59 2.4326 307.879 0.0747406C336.072 -1.80741 352.289 32.0536 367.865 74.272C386.481 124.867 411.986 109.436 439.787 96.4255C485.438 74.9749 542.508 58.2411 541.722 107.14C541.06 149.503 504.489 194.451 508.44 218.384C511.398 236.649 532.331 242.296 566.751 256.32C605.225 272 658.571 315.914 587.581 344.79C540.171 364.069 494.498 376.603 516.217 426.682C535.475 470.989 556.801 513.559 534.048 531.7C517.314 545.083 472.158 529.631 428.927 510.435C406.173 500.382 385.716 497.694 372.436 527.749C360.915 553.854 345.029 606.538 316.09 607.014C290.648 607.427 269.074 590.652 251.636 541.939C232.544 488.613 212.893 497.818 175.288 514.883C143.95 529.114 69.4431 556.356 71.9666 501.169C74.1799 452.456 142.626 393.607 89.1765 372.157C27.8662 347.438 -7.91871 320.093 1.49292 287.493C12.6628 248.812 121.859 253.115 107.896 201.568C93.4169 148.304 66.361 88.2141 101.815 73.114C141.923 56.11 219.057 140.567 244.334 85.276Z" fill-rule="nonzero" transform="matrix(1 0 0 1 -46.2967 103.536)" fill="rgb(132, 112, 246)"/>
		<path d="M56.8264 21.7502Q58.9571 25.7902 59.5706 30.7357C60.1065 35.0551 64.0425 38.1223 68.3619 37.5864C72.6813 37.0506 75.7485 33.1146 75.2127 28.7952Q74.2441 20.9878 70.7681 14.3972Q67.2921 7.80656 61.3958 2.59785Q55.4995 -2.61095 48.5302 -5.24719Q41.5609 -7.88344 33.6933 -7.88097Q25.827 -7.87478 18.8623 -5.23595Q11.8977 -2.59712 6.00495 2.60843Q0.112353 7.8136 -3.36562 14.3993Q-6.8436 20.9851 -7.81997 28.7868C-8.36046 33.1056 -5.29747 37.0449 -0.978658 37.5854C3.34015 38.1259 7.27947 35.0629 7.81997 30.7441Q8.43878 25.7995 10.5721 21.7599Q12.7054 17.7204 16.4402 14.4213Q20.175 11.1221 24.447 9.50348Q28.7189 7.88488 33.6983 7.88097Q38.6818 7.8794 42.9536 9.49529Q47.2255 11.1112 50.9605 14.4107Q54.6956 17.7103 56.8264 21.7502Z" fill-rule="evenodd" transform="matrix(1 0 0 1 167.982 333.856)" fill="rgb(0, 0, 0)"/>
		<path d="M56.823 21.7548Q58.9549 25.7946 59.571 30.7397C60.1091 35.0588 64.0467 38.124 68.3658 37.5859C72.6849 37.0479 75.7501 33.1103 75.212 28.7912Q74.2397 20.9865 70.7627 14.3981Q67.2858 7.80983 61.3912 2.6028Q55.4966 -2.60421 48.5297 -5.24166Q41.5627 -7.87911 33.6976 -7.88097Q25.8288 -7.87911 18.8619 -5.24166Q11.8949 -2.60421 6.00033 2.60283Q0.105788 7.80986 -3.37117 14.3981Q-6.84813 20.9864 -7.82051 28.7911C-8.35862 33.1102 -5.29346 37.0478 -0.974349 37.5859C3.34476 38.1241 7.28239 35.0589 7.82051 30.7398Q8.43662 25.7946 10.5686 21.7548Q12.7006 17.7151 16.4355 14.4158Q20.1703 11.1166 24.4423 9.49935Q28.7142 7.88214 33.6939 7.88097Q38.6773 7.88214 42.9492 9.49935Q47.2212 11.1166 50.9561 14.4158Q54.691 17.7151 56.823 21.7548Z" fill-rule="evenodd" transform="matrix(1 0 0 1 273.497 333.856)" fill="rgb(0, 0, 0)"/>
		<path d="M8.1356 0C5.53164 -0.0134667 3.41677 0.997042 1.79099 3.03153C0.165388 5.06534 -0.353628 7.35064 0.233943 9.88743C2.43635 18.9182 7.19251 26.3051 14.5024 32.0479C21.8123 37.7908 30.1153 40.6636 39.4112 40.6663C48.7012 40.666 57.0007 37.7986 64.3095 32.0641C71.6183 26.3296 76.378 18.951 78.5884 9.92834C79.1679 7.38953 78.6434 5.10372 77.015 3.07092C75.3865 1.03879 73.2702 0.0287851 70.6661 0.0409052L8.1356 0Z" fill-rule="nonzero" transform="matrix(1 0 0 1 216.648 419.119)" fill="rgb(0, 0, 19)"/>
	</g>
</svg>
