<svg xmlns="http://www.w3.org/2000/svg" viewBox="0 0 640 480" fill="none">
  <path d="M186 248C186 188 232 141 296 135C357 130 414 154 448 198C475 232 485 280 470 318C449 372 393 400 314 396C231 392 186 333 186 248Z" fill="#E5F5EA" opacity="0.96"/>

  <path d="M212 190C249 189 278 198 301 216" stroke="#2FB872" stroke-width="3.2" stroke-linecap="round" opacity="0.42"/>
  <path d="M415 194C386 190 360 198 334 217" stroke="#2FB872" stroke-width="3.2" stroke-linecap="round" opacity="0.42"/>
  <path d="M228 324C257 321 281 312 304 293" stroke="#2FB872" stroke-width="3.2" stroke-linecap="round" opacity="0.38"/>
  <path d="M211 191C245 197 274 207 297 226" stroke="#2FB872" stroke-width="2.2" stroke-linecap="round" stroke-dasharray="5 9" opacity="0.34"/>
  <path d="M416 196C385 198 358 206 333 223" stroke="#2FB872" stroke-width="2.2" stroke-linecap="round" stroke-dasharray="5 9" opacity="0.34"/>
  <path d="M229 324C255 321 279 314 302 299" stroke="#2FB872" stroke-width="2.2" stroke-linecap="round" stroke-dasharray="5 9" opacity="0.32"/>
  <circle cx="299" cy="219" r="6.5" fill="#2FB872"/>
  <circle cx="333" cy="220" r="6.5" fill="#2FB872"/>
  <circle cx="303" cy="296" r="6.5" fill="#2FB872"/>

  <g transform="translate(319 260)">
    <path d="M-52 2C-52 -34 -26 -60 7 -60C40 -60 66 -35 66 1C66 37 40 62 7 62C-26 62 -52 38 -52 2Z" fill="white" stroke="#3F3A37" stroke-width="4.2" stroke-linecap="round" stroke-linejoin="round"/>
    <path d="M-15 -32L21 -32" stroke="#3F3A37" stroke-width="3.2" stroke-linecap="round" opacity="0.14"/>
    <circle cx="-8" cy="4" r="4.8" fill="#3F3A37"/>
    <circle cx="18" cy="4" r="4.8" fill="#3F3A37"/>
    <path d="M4 18L8 31" stroke="#3F3A37" stroke-width="3.2" stroke-linecap="round"/>
    <path d="M-9 38C-1 46 11 46 20 38" stroke="#3F3A37" stroke-width="3.2" stroke-linecap="round"/>
    <path d="M-9 -44C-11 -61 -5 -74 8 -81C20 -87 32 -86 43 -78C55 -70 60 -58 59 -44" stroke="#3F3A37" stroke-width="4.2" stroke-linecap="round" stroke-linejoin="round"/>
  </g>

  <g transform="translate(166 187) rotate(-6)">
    <rect x="-46" y="-48" width="92" height="96" rx="11" fill="white" stroke="#3F3A37" stroke-width="3.2"/>
    <path d="M14 -48L46 -48L46 -17" stroke="#3F3A37" stroke-width="3.2" stroke-linecap="round" stroke-linejoin="round"/>
    <path d="M14 -48L46 -17" stroke="#3F3A37" stroke-width="2.2" stroke-linecap="round" opacity="0.22"/>
    <rect x="-26" y="-28" width="22" height="10" rx="5" fill="#DFF4E8"/>
    <path d="M7 -23L26 -23" stroke="#2FB872" stroke-width="2.8" stroke-linecap="round"/>
    <path d="M-26 -2L25 -2" stroke="#3F3A37" stroke-width="2.4" stroke-linecap="round" opacity="0.2"/>
    <path d="M-26 15L28 15" stroke="#3F3A37" stroke-width="2.4" stroke-linecap="round" opacity="0.18"/>
    <path d="M-26 31L13 31" stroke="#3F3A37" stroke-width="2.4" stroke-linecap="round" opacity="0.18"/>
  </g>

  <g transform="translate(473 190) rotate(7)">
    <rect x="-46" y="-46" width="92" height="92" rx="11" fill="white" stroke="#3F3A37" stroke-width="3.2"/>
    <rect x="-27" y="-25" width="54" height="17" rx="8.5" fill="#ECF7F0"/>
    <circle cx="-16" cy="-16" r="4.3" fill="#2FB872"/>
    <path d="M-2 -16L20 -16" stroke="#3F3A37" stroke-width="2.4" stroke-linecap="round" opacity="0.3"/>
    <circle cx="-16" cy="6" r="4.1" fill="#2FB872"/>
    <path d="M-4 6L19 6" stroke="#3F3A37" stroke-width="2.4" stroke-linecap="round" opacity="0.2"/>
    <circle cx="-16" cy="25" r="4.1" fill="#2FB872" opacity="0.72"/>
    <path d="M-4 25L11 25" stroke="#3F3A37" stroke-width="2.4" stroke-linecap="round" opacity="0.2"/>
  </g>

  <g transform="translate(188 338) rotate(-8)">
    <rect x="-40" y="-28" width="80" height="56" rx="11" fill="white" stroke="#3F3A37" stroke-width="3"/>
    <rect x="-21" y="-11" width="42" height="12" rx="6" fill="#F3F4F3"/>
    <path d="M-10 -4L10 -4" stroke="#3F3A37" stroke-width="2.2" stroke-linecap="round" opacity="0.22"/>
    <path d="M-18 13L18 13" stroke="#3F3A37" stroke-width="2.2" stroke-linecap="round" opacity="0.18"/>
  </g>

  <g transform="translate(455 329) rotate(8)">
    <rect x="-40" y="-28" width="80" height="56" rx="11" fill="white" stroke="#3F3A37" stroke-width="3"/>
    <path d="M-15 -1L-4 10L14 -8" stroke="#2FB872" stroke-width="3" stroke-linecap="round" stroke-linejoin="round"/>
    <path d="M-18 15L18 15" stroke="#3F3A37" stroke-width="2.2" stroke-linecap="round" opacity="0.18"/>
  </g>

  <path d="M116 132L119 142L129 145L119 148L116 158L113 148L103 145L113 142Z" fill="#2FB872" opacity="0.72"/>
  <path d="M512 132L514 140L522 142L514 144L512 152L510 144L502 142L510 140Z" fill="#2FB872" opacity="0.44"/>
</svg>
