<?xml version="1.0" encoding="utf-8" ?>
<svg xmlns="http://www.w3.org/2000/svg" xmlns:xlink="http://www.w3.org/1999/xlink" width="349.8666" height="100" viewBox="0 0 349.8666 100">
	<defs>
		<clipPath id="clipPath8893742695">
			<path d="M0 0L236.111 0L236.111 85L0 85L0 0Z" fill-rule="nonzero" transform="matrix(1 0 0 1 113.756 7.48969)"/>
		</clipPath>
	</defs>
	<g clip-path="url(#clipPath8893742695)">
		<ellipse cx="30.726772" cy="32.684521" rx="30.726772" ry="32.684521" transform="matrix(1 0 0 1 189.479 27.1205)" fill="#EBEBEB"/>
		<ellipse cx="15.69634" cy="16.696428" rx="15.69634" ry="16.696428" transform="matrix(1 0 0 1 204.509 43.1087)" fill="#FFFFFF"/>
		<path d="M65.0685 0L52.7968 0C52.7968 0 51.9406 0.202381 51.7504 0.607143L35.0076 28.131C34.5319 28.9405 33.2953 28.9405 32.8196 28.131L16.3622 0.607143C16.3622 0.607143 15.6963 0 15.2207 0L2.66362 0C1.14155 0 0 1.31548 0 2.83333L0 82.0655C0 83.6845 1.23668 85 2.75875 84.8988L13.6035 84.8988C15.1256 84.7976 16.2671 83.4822 16.2671 81.9643L16.2671 31.4702C16.4574 29.8512 17.5038 31.4702 17.5038 31.4702L31.5829 54.4405C32.6294 56.1607 35.0076 56.1607 36.054 54.4405L50.1332 30.9643C50.1332 30.9643 51.465 28.8393 51.465 30.9643L51.465 81.9643C51.465 83.5834 52.7016 84.7976 54.1286 84.7976L65.0685 84.7976C66.5905 84.7976 67.7321 83.4822 67.7321 81.9643L67.7321 2.83333C67.7321 1.21429 66.4954 0 65.0685 0Z" fill-rule="nonzero" transform="matrix(1 0 0 1 113.756 7.48969)" fill="#EBEBEB"/>
		<path d="M57.0167 60.6569L39.4178 33.1331C38.847 32.2224 38.847 30.9069 39.4178 29.9962L57.0961 1.72125C58.1425 -0.100178 55.9546 0.0010119 55.9546 0.0010119L56.1448 0.0010119L41.3998 0.0010119C40.5436 0.0010119 39.6874 0.506964 39.1167 1.2153L29.4292 16.2343C28.8584 17.145 27.6217 17.145 27.051 16.2343L17.9186 1.35926C17.4429 0.549741 16.5868 0.0437889 15.6355 0.0437889L1.46119 0.0437889C1.46119 0.0437889 -0.821917 0.0437888 0.319634 1.86522L18.1088 30.0974C18.6796 31.0081 18.6796 32.3235 18.1088 33.2343L0.224503 60.8593C-0.251146 62.0735 0.319634 62.3771 0.60502 62.4783L16.5868 62.4783C17.5381 62.4783 18.4893 61.9723 18.965 61.0616L28.0023 45.5795C28.5731 44.6688 29.8097 44.6688 30.3805 45.5795L39.5129 61.0616C39.9886 61.9723 40.9399 62.4783 41.8912 62.4783L56.446 62.4783C56.446 62.4783 57.3973 62.0735 56.8265 60.6569L57.0167 60.6569Z" fill-rule="nonzero" transform="matrix(1 0 0 1 250.708 30.1122)" fill="#EBEBEB"/>
		<path d="M34.2466 16.7976L23.7824 16.7976L23.7824 2.83333C23.7824 1.21429 22.5457 0 21.1187 0L11.035 0C9.51295 0 8.37139 1.31548 8.37139 2.83333L8.37139 16.8988L2.5685 16.8988C1.14156 16.8988 0 18.1131 0 19.631L0 27.625C0 29.1429 1.14156 30.3571 2.5685 30.3571L8.46652 30.3571L8.46652 64.9643C8.46652 72.8571 14.5548 79.3333 21.9749 79.3333L34.1515 79.3333C35.6735 79.3333 36.8151 78.0178 36.8151 76.5L36.8151 67.6964C36.8151 65.0655 35.3881 64.5595 34.6271 64.5595L29.8706 64.5595C29.8706 64.5595 23.5921 64.5595 23.7824 58.3869L23.7824 30.3571L34.2466 30.3571C35.6735 30.3571 36.8151 29.1429 36.8151 27.625L36.8151 19.631C36.8151 18.1131 35.6735 16.8988 34.2466 16.8988L34.2466 16.7976Z" fill-rule="nonzero" transform="matrix(1 0 0 1 313.052 13.2576)" fill="#EBEBEB"/>
	</g>
	<defs>
		<clipPath id="clipPath4673167709">
			<path d="M0 0L89.2799 0L89.2799 100L0 100L0 0Z" fill-rule="nonzero" transform="matrix(1 0 0 1 0 0)"/>
		</clipPath>
	</defs>
	<g clip-path="url(#clipPath4673167709)">
		<path d="M5.45065 78.7379C2.07612 76.7705 0 73.1587 0 69.2536L0 50.2785L0.00659087 50.2752L0 50.2719L0 30.664C0 26.7622 2.07118 23.1537 5.44076 21.1847L39.1465 1.49778C42.5671 -0.499259 46.7985 -0.499259 50.2191 1.49778L83.8392 21.1336C87.2088 23.101 89.2799 26.7112 89.2799 30.613L89.2799 69.5288C89.2799 73.4322 87.2071 77.0424 83.8359 79.0098L50.4383 98.5039C47.0209 100.498 42.7962 100.499 39.3772 98.5089L5.449 78.7395L5.45065 78.7379Z" fill-rule="nonzero" transform="matrix(1 0 0 1 0 2.38419e-07)" fill="#EBEBEB"/>
		<path d="M2.51422e-06 18.0693L2.51422e-06 45.7477C2.51422e-06 47.1993 0.771135 48.5422 2.0234 49.2738L25.9005 63.2217C27.1659 63.9615 28.7329 63.9648 30.0017 63.2316L53.8441 49.4583C55.1063 48.7284 55.8857 47.3806 55.8857 45.9223L55.8857 17.9638C55.8857 16.5122 55.1145 15.1693 53.8606 14.4377L30.0857 0.557341C28.8137 -0.185781 27.2401 -0.185781 25.968 0.557341L2.02176 14.5432C0.767847 15.2748 -0.00163676 16.6176 2.51422e-06 18.0693Z" fill-rule="nonzero" transform="matrix(1 0 0 1 16.6963 18.1113)" fill="#FAFAFA"/>
		<path d="M0 0L0.00823658 25.8758L22.5507 38.8104L22.5507 12.9L0 0Z" fill-rule="nonzero" transform="matrix(1 0 0 1 22.2145 36.8347)" fill="#EBEBEB"/>
	</g>
</svg>
